<?xml version="1.0" encoding="UTF-8" standalone="no"?>
<!-- Generator: Adobe Illustrator 25.0.1, SVG Export Plug-In . SVG Version: 6.00 Build 0)  -->

<svg
   xmlns:dc="http://purl.org/dc/elements/1.1/"
   xmlns:cc="http://creativecommons.org/ns#"
   xmlns:rdf="http://www.w3.org/1999/02/22-rdf-syntax-ns#"
   xmlns:svg="http://www.w3.org/2000/svg"
   xmlns="http://www.w3.org/2000/svg"
   xmlns:xlink="http://www.w3.org/1999/xlink"
   xmlns:sodipodi="http://sodipodi.sourceforge.net/DTD/sodipodi-0.dtd"
   xmlns:inkscape="http://www.inkscape.org/namespaces/inkscape"
   version="1.1"
   id="Layer_1"
   x="0px"
   y="0px"
   viewBox="0 0 864 250"
   xml:space="preserve"
   inkscape:version="0.48.4 r9939"
   width="100%"
   height="100%"
   sodipodi:docname="monarch_logo.svg"><metadata
   id="metadata43"><rdf:RDF><cc:Work
       rdf:about=""><dc:format>image/svg+xml</dc:format><dc:type
         rdf:resource="http://purl.org/dc/dcmitype/StillImage" /></cc:Work></rdf:RDF></metadata><defs
   id="defs41">
	<defs
   id="defs7">
		<polyline
   points="0,182.87 0,0 864,0 864,182.87   "
   id="SVGID_1_" />
	</defs>
	<clipPath
   id="SVGID_2_">
		<use
   id="use11"
   style="overflow:visible"
   xlink:href="#SVGID_1_"
   x="0"
   y="0"
   width="864"
   height="155.21001" />
	</clipPath>
	
<linearGradient
   inkscape:collect="always"
   xlink:href="#SVGID_3_"
   id="linearGradient3038"
   gradientUnits="userSpaceOnUse"
   x1="518.21051"
   y1="113.2231"
   x2="518.21051"
   y2="36.8148" /><linearGradient
   inkscape:collect="always"
   xlink:href="#SVGID_4_"
   id="linearGradient3040"
   gradientUnits="userSpaceOnUse"
   x1="89.846901"
   y1="118.0356"
   x2="89.846901"
   y2="6.1097002" />
		
		<linearGradient
   id="SVGID_3_"
   gradientUnits="userSpaceOnUse"
   x1="518.21051"
   y1="113.2231"
   x2="518.21051"
   y2="36.8148">
			<stop
   offset="1.331947e-07"
   style="stop-color:#004A8E"
   id="stop18" />
			<stop
   offset="1"
   style="stop-color:#5DA8DC"
   id="stop20" />
		</linearGradient>
		
		<linearGradient
   id="SVGID_4_"
   gradientUnits="userSpaceOnUse"
   x1="89.846901"
   y1="118.0356"
   x2="89.846901"
   y2="6.1097002">
			<stop
   offset="1.331947e-07"
   style="stop-color:#004A8E"
   id="stop25" />
			<stop
   offset="0.85"
   style="stop-color:#59A4D9"
   id="stop27" />
		</linearGradient>
		
		
	<linearGradient
   inkscape:collect="always"
   xlink:href="#SVGID_4_"
   id="linearGradient3053"
   gradientUnits="userSpaceOnUse"
   x1="89.846901"
   y1="118.0356"
   x2="89.846901"
   y2="6.1097002" /><linearGradient
   inkscape:collect="always"
   xlink:href="#SVGID_3_"
   id="linearGradient3056"
   gradientUnits="userSpaceOnUse"
   x1="518.21051"
   y1="113.2231"
   x2="518.21051"
   y2="36.8148" />
			
		</defs><sodipodi:namedview
   pagecolor="#ffffff"
   bordercolor="#666666"
   borderopacity="1"
   objecttolerance="10"
   gridtolerance="10"
   guidetolerance="10"
   inkscape:pageopacity="0"
   inkscape:pageshadow="2"
   inkscape:window-width="1920"
   inkscape:window-height="1017"
   id="namedview39"
   showgrid="false"
   inkscape:zoom="1.0082819"
   inkscape:cx="423.82242"
   inkscape:cy="0.37198404"
   inkscape:window-x="1912"
   inkscape:window-y="-8"
   inkscape:window-maximized="1"
   inkscape:current-layer="Layer_1" />
<style
   type="text/css"
   id="style3">
	.st0{clip-path:url(#SVGID_2_);}
	.st1{fill:#5DA8DC;}
	.st2{fill:url(#SVGID_3_);}
	.st3{fill:url(#SVGID_4_);}
</style>
<path
   class="st2"
   d="M 443.85059,99.292485 466.61275,63.44973 h 18.13108 l 22.76216,35.842755 H 487.91568 L 475.68266,79.990523 463.44964,99.292485 h -19.59905 z m 1.97476,30.923335 h 59.70588 l -29.85731,-12.05827 -29.84857,12.05827 z m 64.71269,-26.13499 -15.60585,6.30001 12.5738,19.83498 h 3.47768 16.15632 l -16.60195,-26.13499 z m -66.68745,26.13499 12.5738,-19.83498 -15.60584,-6.30001 -16.60196,26.14372 h 17.0738 2.51651 0.0437 z M 293.89995,63.44973 c 5.97671,0 11.04467,1.904856 15.2039,5.705831 4.19418,3.800974 6.27379,8.397096 6.23884,13.788363 v 27.777696 c 0.035,5.39127 -2.04466,9.98739 -6.23884,13.78836 -4.15923,3.80098 -9.22719,5.70584 -15.2039,5.70584 h -52.19132 c -5.94175,0 -11.00972,-1.90486 -15.20389,-5.70584 -4.15923,-3.80097 -6.23885,-8.39709 -6.23885,-13.78836 V 82.943924 c 0,-5.391267 2.07962,-9.987389 6.23885,-13.788363 4.19417,-3.800975 9.26214,-5.705831 15.20389,-5.705831 h 52.19132 z m -52.9253,17.161182 c -1.66019,1.433011 -2.48155,3.267965 -2.48155,5.50486 v 21.442738 c 0,2.14078 0.8301,3.99321 2.48155,5.55728 1.6602,1.45923 3.68739,2.21069 6.0903,2.24564 h 41.46995 c 2.43786,-0.0961 4.46505,-0.85631 6.09029,-2.28932 1.6602,-1.55535 2.48156,-3.3903 2.48156,-5.50486 V 86.115772 c 0,-2.245633 -0.8301,-4.089324 -2.48156,-5.557287 -1.62524,-1.590293 -3.65243,-2.34175 -6.09029,-2.245633 h -41.46121 c -2.41165,-0.02621 -4.43884,0.733981 -6.09904,2.29806 z m 101.4205,-17.161182 57.69617,46.87868 V 63.44973 h 18.27089 v 66.76609 H 400.09132 L 342.39515,83.380818 V 130.21582 H 324.16794 V 63.44973 h 18.22721 z m 361.50328,0 c 5.9767,0 11.04467,1.904856 15.2039,5.705831 4.19418,3.800974 6.27379,8.397096 6.23884,13.788363 l -18.2272,4.290296 v -1.118448 c 0,-2.245633 -0.8301,-4.089324 -2.48156,-5.557287 -1.62524,-1.590293 -3.65243,-2.34175 -6.0903,-2.245633 h -40.01072 c -2.34175,-0.03495 -4.36894,0.733981 -6.0903,2.289322 -1.66019,1.433011 -2.48155,3.267965 -2.48155,5.50486 v 21.442736 c 0,2.14078 0.84757,3.99321 2.53398,5.55729 1.68641,1.45922 3.70486,2.21068 6.04661,2.24563 h 40.01072 c 2.43787,-0.0961 4.46505,-0.85631 6.0903,-2.28932 1.66019,-1.55534 2.48155,-3.3903 2.48155,-5.50486 v -1.02233 l 18.22721,4.19418 c 0.0349,5.39127 -2.04467,9.98739 -6.23884,13.78836 -4.15923,3.80098 -9.2272,5.70583 -15.2039,5.70583 h -50.73209 c -5.94176,0 -11.00972,-1.90485 -15.2039,-5.70583 -4.15923,-3.80097 -6.23885,-8.39709 -6.23885,-13.78836 V 82.943924 c 0,-5.391267 2.09709,-9.987389 6.28254,-13.788363 4.19417,-3.800975 9.24467,-5.705831 15.16021,-5.705831 h 50.72335 z m 48.48646,0 v 24.999054 h 53.94762 V 63.44973 h 18.22721 v 66.76609 h -18.22721 v -26.89518 h -53.94762 v 26.90391 H 734.15768 V 63.44973 h 18.22721 z m -129.43412,66.76609 -21.73109,-24.46605 c 5.91554,-0.68156 10.85244,-2.97087 14.8107,-6.867965 3.96699,-3.993208 5.94175,-8.702922 5.94175,-14.129141 0,-5.880589 -2.28932,-10.896128 -6.86797,-15.055355 -4.57864,-4.159228 -10.10098,-6.238842 -16.567,-6.238842 h -65.54279 v 66.766083 h 18.2272 V 78.933241 78.321589 h 45.56801 c 2.14078,-0.09612 3.8534,0.506797 5.12039,1.800002 1.36311,1.170875 2.02719,2.726217 2.00098,4.674762 0.0349,1.852429 -0.62913,3.407771 -2.00098,4.674762 -1.26699,1.23204 -2.97087,1.852429 -5.12039,1.852429 l -27.28838,-0.02621 32.26023,38.918496 h 21.18934 z m -53.4583,-38.918489 0,0 0,0 0,0 z"
   id="path22"
   style="fill:#1963a3;fill-opacity:1"
   inkscape:connector-curvature="0" /><path
   class="st3"
   d="m 232.57947,21.459837 c -7.50138,-11.187293 -40.14472,2.567189 -58.53898,15.838851 -18.13519,13.083246 -45.42041,46.197634 -45.42041,46.197634 0,0 -27.297,-33.102612 -45.432187,-46.185857 C 64.793628,24.038802 32.162061,10.272544 24.648911,21.459837 c -7.100988,10.586711 8.372805,24.258761 11.882082,32.348941 3.509277,8.101955 4.239396,24.058571 10.327638,29.098743 6.088242,5.051941 18.158743,3.167767 18.158743,3.167767 0,0 -30.158587,8.207938 -12.258918,38.825782 10.304086,17.60527 31.088898,24.24699 31.088898,24.24699 V 80.375652 l 44.760956,42.676578 44.76094,-42.676578 v 68.784188 c 0,0 20.78481,-6.64172 31.0889,-24.24699 17.91144,-30.617845 -12.25892,-38.825784 -12.25892,-38.825784 0,0 12.0705,1.884174 18.15875,-3.167776 6.08824,-5.051941 6.81835,-21.008557 10.32763,-29.098736 3.52106,-8.101956 18.99485,-21.774006 11.89386,-32.360717 z"
   id="path29"
   style="fill:#1963a3;fill-opacity:1"
   inkscape:connector-curvature="0" />
<text
   xml:space="preserve"
   style="font-size:109.95029448999999000px;font-style:normal;font-variant:normal;font-weight:bold;font-stretch:normal;line-height:125%;letter-spacing:0px;word-spacing:0px;fill:#1963a3;fill-opacity:1;stroke:none;font-family:Arial;-inkscape-font-specification:Arial Bold"
   x="224.93188"
   y="224.64972"
   id="text3007"
   sodipodi:linespacing="125%"
   transform="scale(0.9886047,1.0115267)"><tspan
     sodipodi:role="line"
     id="tspan3009"
     x="224.93188"
     y="224.64972"
     style="font-style:normal;font-variant:normal;font-weight:bold;font-stretch:normal;font-family:Segoe UI;-inkscape-font-specification:Segoe UI Bold;fill:#1963a3;fill-opacity:1">SOLUTIONS</tspan></text>

</svg>